<?xml version="1.0" encoding="UTF-8"?>
<!DOCTYPE svg PUBLIC "-//W3C//DTD SVG 1.1//EN" "http://www.w3.org/Graphics/SVG/1.1/DTD/svg11.dtd">
<!-- Creator: CorelDRAW 2021 (64-Bit) -->
<svg xmlns="http://www.w3.org/2000/svg" xml:space="preserve" width="191px" height="37px" version="1.1" style="shape-rendering:geometricPrecision; text-rendering:geometricPrecision; image-rendering:optimizeQuality; fill-rule:evenodd; clip-rule:evenodd"
viewBox="0 0 191 36.98"
 xmlns:xlink="http://www.w3.org/1999/xlink"
 xmlns:xodm="http://www.corel.com/coreldraw/odm/2003">
 <defs>
  <style type="text/css">
   <![CDATA[
    .fil1 {fill:#009945}
    .fil0 {fill:#FFCA01;fill-rule:nonzero}
   ]]>
  </style>
 </defs>
 <g id="Layer_x0020_1">
  <metadata id="CorelCorpID_0Corel-Layer"/>
  <path class="fil0" d="M19 10.86l11.55 -0.02 0 -7.21 -12.82 0c-0.18,-0.01 -0.36,-0.02 -0.54,-0.02 -4.54,0 -8.21,3.68 -8.21,8.21 0,3.36 2.01,6.25 4.9,7.52l8.22 4.1c1.94,0.97 1.62,2.72 -0.57,2.72l-11.74 0 0 -3.62 -4.88 3.59 -4.88 3.59 4.88 3.6 4.88 3.59 0 -3.63 13.96 0.17c4.54,0 8.21,-3.68 8.21,-8.21 0,-2.31 -0.46,-4.81 -2.54,-6.28l-10.65 -5.55c-0.85,-0.45 -0.74,-2.55 0.23,-2.55zm38.9 -7.12l0 19.16c0,3.39 -1.15,6.09 -3.44,8.11 -2.29,2.03 -5.34,3.04 -9.15,3.04 -3.8,0 -6.7,-0.98 -8.71,-2.95 -2.02,-1.96 -3.02,-4.79 -3.02,-8.48l0 -18.88 8.87 0 0 19.82c0,1.8 1.48,3.28 3.29,3.28l0 0c1.8,0 3.28,-1.48 3.28,-3.28l0 -19.82 8.88 0zm19 29.56c4.53,0 8.21,-3.68 8.21,-8.21 0,-3.1 -1.72,-5.8 -4.26,-7.2 1.99,-1.41 3.28,-3.72 3.28,-6.34 0,-4.11 -3.19,-7.48 -7.23,-7.76l0 -0.08 -16.48 0 0 29.59 16.48 0zm-7.69 -12.24l4.26 0c1.7,0 3.09,1.39 3.09,3.09l0 0c0,1.58 -1.3,2.87 -2.88,2.87l-4.47 0 0 -5.96zm0 -10.82l3.57 0c1.42,0 2.58,1.16 2.58,2.58l0 0c0,1.32 -1.09,2.4 -2.41,2.4l-3.74 0 0 -4.98z"/>
  <path class="fil1" d="M176.94 10.78l0 6.09c0,4.24 -3.35,7.73 -7.54,7.95l0 8.65 -9.55 0 0 -8.67c-4.04,-0.37 -7.24,-3.8 -7.24,-7.93l0 -13.2 8.73 0 0 11.8c0,1.54 1.26,2.8 2.8,2.8l1.28 0c1.54,0 2.79,-1.26 2.79,-2.8l0 -6.27 0.04 0c0,-0.04 -0.01,-0.08 -0.01,-0.12 0,-2.99 2.43,-5.41 5.42,-5.41l0.01 0 0.05 0 0 0 7.47 0 0 -3.63 4.89 3.59 4.88 3.59 -4.88 3.6 -4.89 3.59 0 -3.63 -4.25 0zm-42.13 22.58l-8.92 0 0 -18.8c0,-3.63 1.13,-6.45 3.39,-8.46 2.25,-2.01 5.42,-3.01 9.51,-3.01 3.94,0 6.86,0.91 8.74,2.73 1.89,1.83 2.83,4.63 2.83,8.44l0 19.1 -8.92 0 0 -8.65 -6.63 0 0 8.65zm6.63 -15.03l0 -4.96c0,-1.83 -1.49,-3.32 -3.31,-3.32l0 0c-1.83,0 -3.32,1.49 -3.32,3.32l0 4.96 6.63 0zm-17.72 -14.53l0 21.28c0,2.67 -0.94,4.83 -2.82,6.51 -1.87,1.68 -4.3,2.52 -7.27,2.52 -0.19,0 -0.38,-0.01 -0.56,0 -1.61,0.12 -5.07,0.16 -7.66,-2.19 -2.49,2.53 -5.96,2.27 -7.24,2.22 -0.47,-0.02 -0.95,-0.03 -1.46,-0.03 -3.12,0 -5.51,-0.84 -7.17,-2.52 -1.65,-1.68 -2.48,-4.09 -2.48,-7.24l0 -20.55 8.8 0 0 20.18c0,1.44 1.17,2.62 2.61,2.62l0 0c1.44,0 2.62,-1.18 2.62,-2.62l0 -20.18 8.39 0 0 20.18c0,1.44 1.18,2.62 2.62,2.62l0 0c1.44,0 2.61,-1.18 2.61,-2.62l0 -20.18 9.01 0zm49.79 25.24c0.37,0 0.73,0.1 1.09,0.29 0.35,0.19 0.63,0.46 0.82,0.82 0.2,0.35 0.3,0.72 0.3,1.11 0,0.38 -0.1,0.74 -0.29,1.09 -0.2,0.36 -0.47,0.63 -0.82,0.82 -0.35,0.2 -0.72,0.29 -1.1,0.29 -0.38,0 -0.75,-0.09 -1.1,-0.29 -0.35,-0.19 -0.62,-0.46 -0.82,-0.82 -0.19,-0.35 -0.29,-0.71 -0.29,-1.09 0,-0.39 0.1,-0.76 0.29,-1.11 0.2,-0.36 0.48,-0.63 0.83,-0.82 0.36,-0.19 0.72,-0.29 1.09,-0.29zm0 0.37c-0.31,0 -0.61,0.08 -0.91,0.24 -0.29,0.16 -0.52,0.39 -0.69,0.68 -0.16,0.3 -0.25,0.61 -0.25,0.93 0,0.31 0.09,0.62 0.25,0.91 0.16,0.29 0.39,0.52 0.68,0.68 0.3,0.17 0.6,0.25 0.92,0.25 0.32,0 0.62,-0.08 0.92,-0.25 0.29,-0.16 0.52,-0.39 0.68,-0.68 0.16,-0.29 0.24,-0.6 0.24,-0.91 0,-0.32 -0.08,-0.63 -0.25,-0.93 -0.16,-0.29 -0.39,-0.52 -0.69,-0.68 -0.29,-0.16 -0.59,-0.24 -0.9,-0.24zm-0.97 3.07l0 -2.38 0.82 0c0.28,0 0.48,0.02 0.6,0.07 0.13,0.04 0.23,0.12 0.3,0.23 0.08,0.1 0.11,0.22 0.11,0.34 0,0.18 -0.06,0.33 -0.18,0.46 -0.13,0.13 -0.29,0.2 -0.5,0.21 0.09,0.04 0.16,0.08 0.21,0.13 0.09,0.09 0.21,0.25 0.35,0.47l0.29 0.47 -0.47 0 -0.21 -0.38c-0.17,-0.29 -0.3,-0.48 -0.4,-0.55 -0.07,-0.06 -0.18,-0.08 -0.31,-0.08l-0.23 0 0 1.01 -0.38 0zm0.38 -1.34l0.47 0c0.22,0 0.37,-0.04 0.46,-0.1 0.08,-0.07 0.12,-0.16 0.12,-0.26 0,-0.07 -0.02,-0.14 -0.06,-0.19 -0.04,-0.06 -0.09,-0.1 -0.16,-0.13 -0.07,-0.02 -0.2,-0.04 -0.39,-0.04l-0.44 0 0 0.72z"/>
 </g>
</svg>
